<svg width="18" height="16" viewBox="0 0 18 16" fill="none" xmlns="http://www.w3.org/2000/svg">
<path d="M5.83784 9H4.37838C4.10959 9 3.89189 9.22375 3.89189 9.5V15.5C3.89189 15.7762 4.10959 16 4.37838 16H5.83784C6.10662 16 6.32432 15.7762 6.32432 15.5V9.5C6.32432 9.22375 6.10662 9 5.83784 9ZM1.94595 12H0.486486C0.217703 12 0 12.2238 0 12.5V15.5C0 15.7762 0.217703 16 0.486486 16H1.94595C2.21473 16 2.43243 15.7762 2.43243 15.5V12.5C2.43243 12.2238 2.21473 12 1.94595 12ZM9.72973 6H8.27027C8.00149 6 7.78378 6.22375 7.78378 6.5V15.5C7.78378 15.7762 8.00149 16 8.27027 16H9.72973C9.99851 16 10.2162 15.7762 10.2162 15.5V6.5C10.2162 6.22375 9.99851 6 9.72973 6ZM13.6216 3H12.1622C11.8934 3 11.6757 3.22375 11.6757 3.5V15.5C11.6757 15.7762 11.8934 16 12.1622 16H13.6216C13.8904 16 14.1081 15.7762 14.1081 15.5V3.5C14.1081 3.22375 13.8904 3 13.6216 3ZM17.5135 0H16.0541C15.7853 0 15.5676 0.22375 15.5676 0.5V15.5C15.5676 15.7762 15.7853 16 16.0541 16H17.5135C17.7823 16 18 15.7762 18 15.5V0.5C18 0.22375 17.7823 0 17.5135 0Z" fill="black"/>
</svg>
